<mxfile host="app.diagrams.net" agent="Mozilla/5.0 (Windows NT 10.0; Win64; x64) AppleWebKit/537.36 (KHTML, like Gecko) Chrome/134.0.0.0 Safari/537.36 OPR/119.0.0.0 (Edition std-2)" version="27.1.6">
  <diagram name="Página-1" id="VAkRevvwhK3ELiaLSgaE">
    <mxGraphModel dx="835" dy="1747" grid="1" gridSize="10" guides="1" tooltips="1" connect="1" arrows="1" fold="1" page="1" pageScale="1" pageWidth="827" pageHeight="1169" math="0" shadow="0">
      <root>
        <mxCell id="0" />
        <mxCell id="1" parent="0" />
        <mxCell id="ss_T5aYVe5_uPS8-H1rj-35" style="rounded=0;orthogonalLoop=1;jettySize=auto;html=1;entryX=0;entryY=0.5;entryDx=0;entryDy=0;endArrow=classic;endFill=1;startFill=0;" parent="1" source="ss_T5aYVe5_uPS8-H1rj-1" target="ss_T5aYVe5_uPS8-H1rj-5" edge="1">
          <mxGeometry relative="1" as="geometry" />
        </mxCell>
        <mxCell id="ss_T5aYVe5_uPS8-H1rj-39" style="rounded=0;orthogonalLoop=1;jettySize=auto;html=1;entryX=0;entryY=0.5;entryDx=0;entryDy=0;" parent="1" source="ss_T5aYVe5_uPS8-H1rj-1" target="ss_T5aYVe5_uPS8-H1rj-7" edge="1">
          <mxGeometry relative="1" as="geometry" />
        </mxCell>
        <mxCell id="ss_T5aYVe5_uPS8-H1rj-1" value="Paciente" style="shape=umlActor;verticalLabelPosition=bottom;verticalAlign=top;html=1;outlineConnect=0;" parent="1" vertex="1">
          <mxGeometry x="180" y="-270" width="30" height="60" as="geometry" />
        </mxCell>
        <mxCell id="ss_T5aYVe5_uPS8-H1rj-48" style="rounded=0;orthogonalLoop=1;jettySize=auto;html=1;entryX=0;entryY=0.5;entryDx=0;entryDy=0;" parent="1" source="ss_T5aYVe5_uPS8-H1rj-2" target="ss_T5aYVe5_uPS8-H1rj-5" edge="1">
          <mxGeometry relative="1" as="geometry" />
        </mxCell>
        <mxCell id="ss_T5aYVe5_uPS8-H1rj-49" style="rounded=0;orthogonalLoop=1;jettySize=auto;html=1;entryX=0;entryY=0.5;entryDx=0;entryDy=0;" parent="1" source="ss_T5aYVe5_uPS8-H1rj-2" target="ss_T5aYVe5_uPS8-H1rj-7" edge="1">
          <mxGeometry relative="1" as="geometry" />
        </mxCell>
        <mxCell id="ss_T5aYVe5_uPS8-H1rj-2" value="Profissional" style="shape=umlActor;verticalLabelPosition=bottom;verticalAlign=top;html=1;outlineConnect=0;" parent="1" vertex="1">
          <mxGeometry x="180" y="-370" width="30" height="60" as="geometry" />
        </mxCell>
        <mxCell id="ss_T5aYVe5_uPS8-H1rj-23" style="rounded=0;orthogonalLoop=1;jettySize=auto;html=1;entryX=0;entryY=0.5;entryDx=0;entryDy=0;endArrow=none;startFill=0;" parent="1" source="ss_T5aYVe5_uPS8-H1rj-3" target="ss_T5aYVe5_uPS8-H1rj-22" edge="1">
          <mxGeometry relative="1" as="geometry" />
        </mxCell>
        <mxCell id="ss_T5aYVe5_uPS8-H1rj-3" value="Administrador" style="shape=umlActor;verticalLabelPosition=bottom;verticalAlign=top;html=1;outlineConnect=0;" parent="1" vertex="1">
          <mxGeometry x="405" y="540" width="30" height="60" as="geometry" />
        </mxCell>
        <mxCell id="ss_T5aYVe5_uPS8-H1rj-5" value="Gerenciar Cadastro no sistema" style="ellipse;whiteSpace=wrap;html=1;" parent="1" vertex="1">
          <mxGeometry x="370" y="-360" width="120" height="50" as="geometry" />
        </mxCell>
        <mxCell id="ss_T5aYVe5_uPS8-H1rj-7" value="Realizar Login" style="ellipse;whiteSpace=wrap;html=1;" parent="1" vertex="1">
          <mxGeometry x="370" y="-280" width="120" height="50" as="geometry" />
        </mxCell>
        <mxCell id="ss_T5aYVe5_uPS8-H1rj-44" style="rounded=0;orthogonalLoop=1;jettySize=auto;html=1;entryX=1;entryY=0.5;entryDx=0;entryDy=0;dashed=1;endArrow=open;endFill=0;" parent="1" source="ss_T5aYVe5_uPS8-H1rj-8" target="ss_T5aYVe5_uPS8-H1rj-7" edge="1">
          <mxGeometry relative="1" as="geometry" />
        </mxCell>
        <mxCell id="ss_T5aYVe5_uPS8-H1rj-8" value="Gerenciar Perfil" style="ellipse;whiteSpace=wrap;html=1;" parent="1" vertex="1">
          <mxGeometry x="580" y="-280" width="120" height="50" as="geometry" />
        </mxCell>
        <mxCell id="ss_T5aYVe5_uPS8-H1rj-22" value="Gerenciar Usuários" style="ellipse;whiteSpace=wrap;html=1;" parent="1" vertex="1">
          <mxGeometry x="490" y="520" width="120" height="50" as="geometry" />
        </mxCell>
        <mxCell id="ss_T5aYVe5_uPS8-H1rj-45" value="extends&lt;div&gt;&lt;br&gt;&lt;/div&gt;" style="text;html=1;align=center;verticalAlign=middle;resizable=0;points=[];autosize=1;strokeColor=none;fillColor=none;rotation=-10;" parent="1" vertex="1">
          <mxGeometry x="510" y="-290" width="70" height="40" as="geometry" />
        </mxCell>
        <mxCell id="1Cvz7WU102pqnaZ80RXv-4" style="rounded=0;orthogonalLoop=1;jettySize=auto;html=1;entryX=0.5;entryY=0;entryDx=0;entryDy=0;dashed=1;endArrow=open;endFill=0;" parent="1" source="1Cvz7WU102pqnaZ80RXv-1" target="ss_T5aYVe5_uPS8-H1rj-8" edge="1">
          <mxGeometry relative="1" as="geometry" />
        </mxCell>
        <mxCell id="1Cvz7WU102pqnaZ80RXv-1" value="Editar informações pessoais" style="ellipse;whiteSpace=wrap;html=1;" parent="1" vertex="1">
          <mxGeometry x="530" y="-365" width="120" height="50" as="geometry" />
        </mxCell>
        <mxCell id="1Cvz7WU102pqnaZ80RXv-5" value="extends&lt;div&gt;&lt;br&gt;&lt;/div&gt;" style="text;html=1;align=center;verticalAlign=middle;resizable=0;points=[];autosize=1;strokeColor=none;fillColor=none;rotation=-10;" parent="1" vertex="1">
          <mxGeometry x="620" y="-320" width="70" height="40" as="geometry" />
        </mxCell>
        <mxCell id="1Cvz7WU102pqnaZ80RXv-16" style="rounded=0;orthogonalLoop=1;jettySize=auto;html=1;entryX=0;entryY=0.5;entryDx=0;entryDy=0;" parent="1" source="1Cvz7WU102pqnaZ80RXv-6" target="1Cvz7WU102pqnaZ80RXv-14" edge="1">
          <mxGeometry relative="1" as="geometry" />
        </mxCell>
        <mxCell id="1Cvz7WU102pqnaZ80RXv-6" value="Administrador" style="shape=umlActor;verticalLabelPosition=bottom;verticalAlign=top;html=1;outlineConnect=0;" parent="1" vertex="1">
          <mxGeometry x="180" y="-520" width="30" height="60" as="geometry" />
        </mxCell>
        <mxCell id="1Cvz7WU102pqnaZ80RXv-7" value="Gerenciar Usuários no sistema" style="ellipse;whiteSpace=wrap;html=1;" parent="1" vertex="1">
          <mxGeometry x="430" y="-580" width="120" height="50" as="geometry" />
        </mxCell>
        <mxCell id="1Cvz7WU102pqnaZ80RXv-11" value="Gerenciar Consultas" style="ellipse;whiteSpace=wrap;html=1;" parent="1" vertex="1">
          <mxGeometry x="440" y="-470" width="120" height="50" as="geometry" />
        </mxCell>
        <mxCell id="IEusNsWqZxioM76G4dEo-2" value="" style="rounded=0;whiteSpace=wrap;html=1;" vertex="1" parent="1">
          <mxGeometry x="1030" y="-610" width="510" height="400" as="geometry" />
        </mxCell>
        <mxCell id="1Cvz7WU102pqnaZ80RXv-18" style="rounded=0;orthogonalLoop=1;jettySize=auto;html=1;entryX=0;entryY=0.5;entryDx=0;entryDy=0;dashed=1;endArrow=open;endFill=0;" parent="1" source="1Cvz7WU102pqnaZ80RXv-14" target="1Cvz7WU102pqnaZ80RXv-7" edge="1">
          <mxGeometry relative="1" as="geometry" />
        </mxCell>
        <mxCell id="1Cvz7WU102pqnaZ80RXv-20" style="rounded=0;orthogonalLoop=1;jettySize=auto;html=1;entryX=0;entryY=0.5;entryDx=0;entryDy=0;dashed=1;endArrow=open;endFill=0;" parent="1" source="1Cvz7WU102pqnaZ80RXv-14" target="1Cvz7WU102pqnaZ80RXv-11" edge="1">
          <mxGeometry relative="1" as="geometry" />
        </mxCell>
        <mxCell id="1Cvz7WU102pqnaZ80RXv-14" value="Realizar Login" style="ellipse;whiteSpace=wrap;html=1;" parent="1" vertex="1">
          <mxGeometry x="275" y="-515" width="120" height="50" as="geometry" />
        </mxCell>
        <mxCell id="1Cvz7WU102pqnaZ80RXv-19" value="include" style="text;html=1;align=center;verticalAlign=middle;resizable=0;points=[];autosize=1;strokeColor=none;fillColor=none;" parent="1" vertex="1">
          <mxGeometry x="350" y="-560" width="60" height="30" as="geometry" />
        </mxCell>
        <mxCell id="1Cvz7WU102pqnaZ80RXv-21" value="include" style="text;html=1;align=center;verticalAlign=middle;resizable=0;points=[];autosize=1;strokeColor=none;fillColor=none;" parent="1" vertex="1">
          <mxGeometry x="390" y="-492" width="60" height="30" as="geometry" />
        </mxCell>
        <mxCell id="1Cvz7WU102pqnaZ80RXv-23" style="edgeStyle=orthogonalEdgeStyle;rounded=0;orthogonalLoop=1;jettySize=auto;html=1;dashed=1;endArrow=open;endFill=0;" parent="1" source="1Cvz7WU102pqnaZ80RXv-22" target="1Cvz7WU102pqnaZ80RXv-7" edge="1">
          <mxGeometry relative="1" as="geometry" />
        </mxCell>
        <mxCell id="1Cvz7WU102pqnaZ80RXv-22" value="Gerenciar Perfil" style="ellipse;whiteSpace=wrap;html=1;" parent="1" vertex="1">
          <mxGeometry x="640" y="-580" width="120" height="50" as="geometry" />
        </mxCell>
        <mxCell id="1Cvz7WU102pqnaZ80RXv-24" value="extends" style="text;html=1;align=center;verticalAlign=middle;resizable=0;points=[];autosize=1;strokeColor=none;fillColor=none;" parent="1" vertex="1">
          <mxGeometry x="560" y="-580" width="70" height="30" as="geometry" />
        </mxCell>
        <mxCell id="IEusNsWqZxioM76G4dEo-3" style="rounded=0;orthogonalLoop=1;jettySize=auto;html=1;entryX=0;entryY=0.5;entryDx=0;entryDy=0;endArrow=classic;endFill=1;startFill=0;" edge="1" parent="1" source="IEusNsWqZxioM76G4dEo-5" target="IEusNsWqZxioM76G4dEo-9">
          <mxGeometry relative="1" as="geometry" />
        </mxCell>
        <mxCell id="IEusNsWqZxioM76G4dEo-4" style="rounded=0;orthogonalLoop=1;jettySize=auto;html=1;entryX=0;entryY=0.5;entryDx=0;entryDy=0;" edge="1" parent="1" source="IEusNsWqZxioM76G4dEo-5" target="IEusNsWqZxioM76G4dEo-10">
          <mxGeometry relative="1" as="geometry" />
        </mxCell>
        <mxCell id="IEusNsWqZxioM76G4dEo-5" value="Paciente" style="shape=umlActor;verticalLabelPosition=bottom;verticalAlign=top;html=1;outlineConnect=0;" vertex="1" parent="1">
          <mxGeometry x="951" y="-265" width="30" height="60" as="geometry" />
        </mxCell>
        <mxCell id="IEusNsWqZxioM76G4dEo-6" style="rounded=0;orthogonalLoop=1;jettySize=auto;html=1;entryX=0;entryY=0.5;entryDx=0;entryDy=0;" edge="1" parent="1" source="IEusNsWqZxioM76G4dEo-8" target="IEusNsWqZxioM76G4dEo-9">
          <mxGeometry relative="1" as="geometry" />
        </mxCell>
        <mxCell id="IEusNsWqZxioM76G4dEo-7" style="rounded=0;orthogonalLoop=1;jettySize=auto;html=1;entryX=0;entryY=0.5;entryDx=0;entryDy=0;" edge="1" parent="1" source="IEusNsWqZxioM76G4dEo-8" target="IEusNsWqZxioM76G4dEo-10">
          <mxGeometry relative="1" as="geometry" />
        </mxCell>
        <mxCell id="IEusNsWqZxioM76G4dEo-8" value="Profissional" style="shape=umlActor;verticalLabelPosition=bottom;verticalAlign=top;html=1;outlineConnect=0;" vertex="1" parent="1">
          <mxGeometry x="951" y="-365" width="30" height="60" as="geometry" />
        </mxCell>
        <mxCell id="IEusNsWqZxioM76G4dEo-9" value="Gerenciar Cadastro no sistema" style="ellipse;whiteSpace=wrap;html=1;" vertex="1" parent="1">
          <mxGeometry x="1141" y="-355" width="120" height="50" as="geometry" />
        </mxCell>
        <mxCell id="IEusNsWqZxioM76G4dEo-10" value="Realizar Login" style="ellipse;whiteSpace=wrap;html=1;" vertex="1" parent="1">
          <mxGeometry x="1141" y="-275" width="120" height="50" as="geometry" />
        </mxCell>
        <mxCell id="IEusNsWqZxioM76G4dEo-11" style="rounded=0;orthogonalLoop=1;jettySize=auto;html=1;entryX=1;entryY=0.5;entryDx=0;entryDy=0;dashed=1;endArrow=open;endFill=0;" edge="1" parent="1" source="IEusNsWqZxioM76G4dEo-12" target="IEusNsWqZxioM76G4dEo-10">
          <mxGeometry relative="1" as="geometry" />
        </mxCell>
        <mxCell id="IEusNsWqZxioM76G4dEo-12" value="Gerenciar Perfil" style="ellipse;whiteSpace=wrap;html=1;" vertex="1" parent="1">
          <mxGeometry x="1351" y="-275" width="120" height="50" as="geometry" />
        </mxCell>
        <mxCell id="IEusNsWqZxioM76G4dEo-13" value="extends&lt;div&gt;&lt;br&gt;&lt;/div&gt;" style="text;html=1;align=center;verticalAlign=middle;resizable=0;points=[];autosize=1;strokeColor=none;fillColor=none;rotation=-10;" vertex="1" parent="1">
          <mxGeometry x="1281" y="-285" width="70" height="40" as="geometry" />
        </mxCell>
        <mxCell id="IEusNsWqZxioM76G4dEo-14" style="rounded=0;orthogonalLoop=1;jettySize=auto;html=1;entryX=0.5;entryY=0;entryDx=0;entryDy=0;dashed=1;endArrow=open;endFill=0;" edge="1" parent="1" source="IEusNsWqZxioM76G4dEo-15" target="IEusNsWqZxioM76G4dEo-12">
          <mxGeometry relative="1" as="geometry" />
        </mxCell>
        <mxCell id="IEusNsWqZxioM76G4dEo-15" value="Editar informações pessoais" style="ellipse;whiteSpace=wrap;html=1;" vertex="1" parent="1">
          <mxGeometry x="1301" y="-360" width="120" height="50" as="geometry" />
        </mxCell>
        <mxCell id="IEusNsWqZxioM76G4dEo-16" value="extends&lt;div&gt;&lt;br&gt;&lt;/div&gt;" style="text;html=1;align=center;verticalAlign=middle;resizable=0;points=[];autosize=1;strokeColor=none;fillColor=none;rotation=-10;" vertex="1" parent="1">
          <mxGeometry x="1391" y="-315" width="70" height="40" as="geometry" />
        </mxCell>
        <mxCell id="IEusNsWqZxioM76G4dEo-17" style="rounded=0;orthogonalLoop=1;jettySize=auto;html=1;entryX=0;entryY=0.5;entryDx=0;entryDy=0;" edge="1" parent="1" source="IEusNsWqZxioM76G4dEo-18" target="IEusNsWqZxioM76G4dEo-23">
          <mxGeometry relative="1" as="geometry" />
        </mxCell>
        <mxCell id="IEusNsWqZxioM76G4dEo-18" value="Administrador" style="shape=umlActor;verticalLabelPosition=bottom;verticalAlign=top;html=1;outlineConnect=0;" vertex="1" parent="1">
          <mxGeometry x="951" y="-515" width="30" height="60" as="geometry" />
        </mxCell>
        <mxCell id="IEusNsWqZxioM76G4dEo-19" value="Gerenciar Usuários no sistema" style="ellipse;whiteSpace=wrap;html=1;" vertex="1" parent="1">
          <mxGeometry x="1201" y="-575" width="120" height="50" as="geometry" />
        </mxCell>
        <mxCell id="IEusNsWqZxioM76G4dEo-20" value="Gerenciar Consultas" style="ellipse;whiteSpace=wrap;html=1;" vertex="1" parent="1">
          <mxGeometry x="1211" y="-465" width="120" height="50" as="geometry" />
        </mxCell>
        <mxCell id="IEusNsWqZxioM76G4dEo-21" style="rounded=0;orthogonalLoop=1;jettySize=auto;html=1;entryX=0;entryY=0.5;entryDx=0;entryDy=0;dashed=1;endArrow=open;endFill=0;" edge="1" parent="1" source="IEusNsWqZxioM76G4dEo-23" target="IEusNsWqZxioM76G4dEo-19">
          <mxGeometry relative="1" as="geometry" />
        </mxCell>
        <mxCell id="IEusNsWqZxioM76G4dEo-22" style="rounded=0;orthogonalLoop=1;jettySize=auto;html=1;entryX=0;entryY=0.5;entryDx=0;entryDy=0;dashed=1;endArrow=open;endFill=0;" edge="1" parent="1" source="IEusNsWqZxioM76G4dEo-23" target="IEusNsWqZxioM76G4dEo-20">
          <mxGeometry relative="1" as="geometry" />
        </mxCell>
        <mxCell id="IEusNsWqZxioM76G4dEo-23" value="Realizar Login" style="ellipse;whiteSpace=wrap;html=1;" vertex="1" parent="1">
          <mxGeometry x="1046" y="-510" width="120" height="50" as="geometry" />
        </mxCell>
        <mxCell id="IEusNsWqZxioM76G4dEo-24" value="include" style="text;html=1;align=center;verticalAlign=middle;resizable=0;points=[];autosize=1;strokeColor=none;fillColor=none;" vertex="1" parent="1">
          <mxGeometry x="1121" y="-555" width="60" height="30" as="geometry" />
        </mxCell>
        <mxCell id="IEusNsWqZxioM76G4dEo-25" value="include" style="text;html=1;align=center;verticalAlign=middle;resizable=0;points=[];autosize=1;strokeColor=none;fillColor=none;" vertex="1" parent="1">
          <mxGeometry x="1161" y="-487" width="60" height="30" as="geometry" />
        </mxCell>
        <mxCell id="IEusNsWqZxioM76G4dEo-26" style="edgeStyle=orthogonalEdgeStyle;rounded=0;orthogonalLoop=1;jettySize=auto;html=1;dashed=1;endArrow=open;endFill=0;" edge="1" parent="1" source="IEusNsWqZxioM76G4dEo-27" target="IEusNsWqZxioM76G4dEo-19">
          <mxGeometry relative="1" as="geometry" />
        </mxCell>
        <mxCell id="IEusNsWqZxioM76G4dEo-27" value="Gerenciar Perfil" style="ellipse;whiteSpace=wrap;html=1;" vertex="1" parent="1">
          <mxGeometry x="1411" y="-575" width="120" height="50" as="geometry" />
        </mxCell>
        <mxCell id="IEusNsWqZxioM76G4dEo-28" value="extends" style="text;html=1;align=center;verticalAlign=middle;resizable=0;points=[];autosize=1;strokeColor=none;fillColor=none;" vertex="1" parent="1">
          <mxGeometry x="1331" y="-575" width="70" height="30" as="geometry" />
        </mxCell>
      </root>
    </mxGraphModel>
  </diagram>
</mxfile>
